<?xml version="1.0" standalone="no"?>
<!DOCTYPE svg PUBLIC "-//W3C//DTD SVG 20010904//EN"
 "http://www.w3.org/TR/2001/REC-SVG-20010904/DTD/svg10.dtd">
<svg version="1.0" xmlns="http://www.w3.org/2000/svg"
 width="1600.000000pt" height="1402.000000pt" viewBox="0 0 1600.000000 1402.000000"
 preserveAspectRatio="xMidYMid meet">

<g transform="translate(0.000000,1402.000000) scale(0.100000,-0.100000)"
fill="#000000" stroke="none">
<path d="M8000 13826 l-54 -184 -95 -8 c-52 -3 -143 -4 -203 0 -59 4 -108 5
-108 2 0 -8 143 -115 235 -176 44 -29 81 -54 82 -54 4 -3 -66 -231 -97 -314
-17 -48 -25 -80 -18 -76 44 25 139 93 220 157 l95 74 114 -81 c63 -45 136 -98
163 -119 27 -20 51 -36 53 -34 2 2 -24 87 -57 188 -33 101 -60 187 -60 190 0
3 64 51 143 107 78 56 153 111 167 122 l25 21 -201 -7 -201 -7 -31 79 c-16 43
-47 126 -67 184 -20 58 -40 109 -44 113 -4 4 -32 -75 -61 -177z"/>
<path d="M6610 13475 l-43 -145 -165 -2 -164 -3 121 -87 c66 -47 125 -88 131
-90 11 -3 -22 -129 -65 -242 -14 -38 -24 -70 -22 -72 5 -5 144 94 207 147 l46
37 109 -79 c61 -43 122 -88 137 -99 27 -20 27 -20 -23 127 -27 81 -49 153 -49
159 0 6 59 53 130 104 72 51 130 95 130 98 0 2 -71 1 -158 -3 l-157 -7 -53
141 c-28 77 -52 145 -52 150 0 6 -4 11 -8 11 -5 0 -28 -65 -52 -145z"/>
<path d="M9431 13583 c-7 -21 -31 -89 -54 -152 l-42 -114 -157 8 c-87 3 -158
4 -158 1 0 -2 59 -46 130 -96 72 -51 130 -97 130 -104 0 -6 -20 -72 -45 -146
-25 -74 -44 -138 -43 -142 2 -3 58 34 125 83 68 49 127 89 133 89 6 0 38 -22
73 -48 63 -50 187 -135 187 -130 0 2 -20 62 -44 133 -66 197 -74 167 76 265
71 47 132 88 134 92 3 4 -57 5 -133 2 -90 -4 -148 -2 -166 5 -33 13 -56 61
-94 198 -15 51 -29 93 -33 93 -3 0 -12 -17 -19 -37z"/>
<path d="M5147 12469 c-79 -19 -163 -83 -198 -150 -26 -53 -24 -59 19 -59 78
1 164 61 233 162 l40 58 -28 -1 c-15 -1 -45 -5 -66 -10z"/>
<path d="M10910 12461 c0 -87 110 -185 221 -198 l50 -6 -26 59 c-39 89 -47 97
-122 126 -109 42 -123 44 -123 19z"/>
<path d="M4725 12368 c-61 -128 -57 -216 13 -284 43 -43 88 -64 135 -64 41 0
136 32 185 62 l35 22 -43 18 c-89 38 -168 33 -281 -16 -13 -6 -11 3 8 43 34
67 41 159 19 234 -9 31 -21 57 -27 57 -5 0 -25 -33 -44 -72z"/>
<path d="M11311 12390 c-6 -28 -11 -70 -11 -94 0 -48 24 -139 46 -173 l14 -23
-52 21 c-67 27 -185 30 -241 6 -22 -9 -36 -21 -32 -27 15 -24 131 -72 184 -77
144 -12 245 129 197 274 -19 56 -70 143 -85 143 -5 0 -14 -23 -20 -50z"/>
<path d="M4362 12061 c-69 -138 -65 -249 10 -324 l43 -42 95 0 c96 0 149 15
205 58 18 14 15 17 -62 55 -69 35 -83 39 -99 28 -25 -18 -135 -58 -141 -52 -7
6 26 104 45 138 14 25 13 31 -18 105 -18 43 -37 82 -41 86 -3 5 -20 -19 -37
-52z"/>
<path d="M11695 12053 c-24 -76 -23 -173 3 -241 l20 -53 -31 20 c-40 24 -131
51 -172 51 -17 0 -55 -7 -84 -16 l-53 -15 23 -25 c34 -36 119 -74 181 -81 202
-21 297 190 172 380 -13 20 -28 37 -33 37 -4 0 -16 -26 -26 -57z"/>
<path d="M7565 11961 c-11 -5 -29 -19 -40 -31 -19 -21 -20 -40 -25 -323 l-5
-301 -35 -9 c-284 -72 -580 -191 -786 -317 l-66 -41 -171 172 c-240 242 -249
249 -300 249 -41 0 -44 -2 -395 -352 -194 -194 -360 -366 -369 -382 -33 -64
-21 -83 201 -306 l205 -205 -29 -47 c-142 -227 -257 -498 -320 -755 l-22 -93
-294 0 -294 0 -32 -29 -33 -29 -3 -494 c-2 -271 0 -507 3 -525 3 -17 14 -42
24 -55 19 -23 20 -23 326 -28 l308 -5 38 -140 c36 -137 118 -355 174 -465 15
-30 57 -106 92 -168 l65 -114 -206 -207 c-195 -196 -206 -209 -206 -245 0 -20
6 -49 14 -64 8 -15 171 -183 363 -374 l349 -348 49 0 49 0 210 209 211 209
105 -61 c200 -115 467 -223 688 -277 l92 -22 0 -287 c0 -325 4 -345 70 -368
45 -15 967 -18 1021 -3 74 21 73 16 79 358 l5 305 129 34 c217 57 411 137 639
264 l109 61 212 -211 212 -211 49 0 49 0 354 353 c201 199 360 366 368 385 8
18 12 44 8 60 -4 17 -80 102 -217 238 l-210 212 71 123 c112 198 208 431 258
624 8 33 20 77 25 97 l10 37 305 3 306 3 29 33 29 32 0 513 c0 458 -2 515 -16
536 -33 47 -63 51 -368 51 l-285 0 -11 43 c-74 290 -147 474 -287 724 l-65
116 210 211 c116 116 213 221 217 234 16 53 -9 82 -369 435 -195 191 -366 351
-382 357 -58 22 -79 7 -296 -208 l-207 -205 -88 50 c-226 130 -472 232 -745
308 l-58 16 0 297 c0 289 -1 299 -21 321 -11 12 -32 26 -46 32 -30 11 -1000
11 -1028 0z m885 -486 c0 -298 6 -336 52 -354 13 -5 77 -21 143 -36 246 -56
543 -179 750 -310 122 -78 149 -89 188 -76 21 7 104 83 232 211 l200 200 262
-262 263 -263 -204 -205 c-155 -156 -206 -213 -211 -238 -6 -28 4 -49 81 -178
137 -229 229 -447 290 -684 19 -74 39 -151 44 -171 6 -20 22 -48 36 -63 l27
-26 288 0 289 0 0 -375 0 -375 -289 0 c-286 0 -290 0 -316 -22 -21 -19 -32
-50 -65 -183 -76 -313 -169 -528 -342 -794 -49 -76 -55 -93 -39 -133 5 -13 81
-95 168 -183 87 -88 176 -179 198 -203 l39 -43 -259 -259 -259 -260 -207 205
c-201 200 -207 205 -247 205 -33 0 -58 -11 -125 -55 -242 -157 -537 -279 -822
-341 -44 -9 -93 -23 -108 -31 -52 -26 -57 -56 -57 -353 l0 -270 -370 0 -370 0
0 284 0 284 -25 31 c-19 22 -40 33 -83 42 -353 72 -670 202 -929 380 -30 21
-54 29 -84 29 -42 0 -46 -3 -245 -201 l-202 -201 -243 230 c-134 126 -253 239
-263 251 l-20 22 196 197 c108 108 201 208 208 220 17 34 6 66 -59 167 -159
248 -281 547 -346 847 -14 63 -23 83 -47 103 l-30 25 -284 0 -284 0 0 370 0
370 265 0 c287 0 316 4 347 52 9 14 29 79 43 144 64 284 187 579 344 819 69
107 69 127 -6 208 -31 34 -123 128 -202 210 l-146 147 263 262 262 263 202
-201 c128 -127 213 -204 230 -208 36 -8 67 5 176 76 205 132 512 257 778 318
113 25 132 32 156 59 l28 31 0 285 0 285 370 0 370 0 0 -275z"/>
<path d="M7849 10901 c-91 -14 -129 -63 -129 -169 0 -219 -182 -432 -405 -473
-152 -28 -327 26 -447 138 -62 59 -104 70 -160 44 -101 -46 -397 -346 -418
-423 -14 -49 3 -90 64 -154 56 -58 110 -162 127 -241 16 -78 6 -204 -21 -275
-45 -120 -157 -232 -286 -286 -53 -22 -154 -42 -217 -42 -50 0 -93 -23 -112
-60 -42 -82 -40 -552 3 -609 33 -44 76 -62 169 -71 195 -18 350 -131 424 -308
75 -182 36 -385 -104 -538 -97 -106 -87 -145 75 -320 109 -118 249 -243 286
-255 53 -17 94 -4 153 51 203 187 515 189 702 6 95 -94 144 -208 154 -360 5
-74 10 -93 30 -117 40 -47 83 -54 348 -54 223 0 243 1 280 21 51 26 75 72 75
144 0 227 175 437 398 481 107 20 246 -1 350 -55 17 -9 64 -43 103 -76 63 -53
77 -60 114 -60 31 0 53 8 81 29 77 56 201 172 287 268 129 144 134 182 38 288
-182 200 -187 486 -13 677 100 108 203 156 360 167 94 7 105 10 132 36 48 46
54 86 54 345 1 215 -1 238 -19 275 -28 56 -77 81 -174 88 -240 19 -426 190
-462 427 -22 144 26 299 130 412 59 64 76 107 61 157 -16 56 -183 241 -323
358 -77 64 -93 73 -128 73 -50 0 -70 -10 -137 -71 -91 -83 -216 -129 -347
-129 -268 1 -472 205 -490 493 -11 161 -27 170 -335 173 -124 1 -246 -1 -271
-5z m282 -1067 c9 -11 15 -53 17 -120 6 -161 -8 -204 -68 -204 -54 0 -60 17
-60 170 0 113 3 142 16 154 20 21 78 20 95 0z m-673 -171 c22 -19 124 -192
136 -229 16 -52 -70 -98 -106 -56 -39 44 -128 212 -128 240 0 53 58 79 98 45z
m1322 -1 c33 -27 28 -61 -25 -154 -71 -123 -91 -148 -124 -148 -33 0 -63 30
-63 63 0 27 104 212 135 240 25 22 49 22 77 -1z m-610 -472 c175 -23 322 -99
446 -233 127 -136 194 -305 194 -490 0 -126 -23 -210 -106 -395 -118 -260
-194 -515 -194 -649 l0 -33 -429 0 -428 0 -7 78 c-13 164 -76 364 -191 612
-92 196 -100 229 -100 390 1 125 3 141 32 223 40 113 83 184 162 269 82 88
182 154 288 190 124 43 213 53 333 38z m-1106 -56 c56 -31 107 -64 114 -72 30
-39 1 -102 -47 -102 -14 0 -75 28 -136 63 -122 70 -142 95 -111 141 26 41 65
34 180 -30z m2212 30 c31 -46 11 -70 -110 -141 -113 -65 -147 -74 -178 -46
-18 17 -24 58 -10 80 4 7 55 40 112 73 120 68 159 76 186 34z m-2244 -653 c13
-17 17 -33 13 -50 -11 -46 -29 -51 -174 -51 -111 0 -138 3 -153 17 -32 28 -19
91 22 106 8 4 73 5 143 4 123 -2 130 -3 149 -26z m2398 16 c19 -9 26 -22 28
-48 5 -63 -10 -69 -166 -69 -75 0 -142 4 -149 8 -37 24 -31 95 9 112 36 14
249 12 278 -3z m-2252 -564 c17 -24 15 -67 -5 -85 -37 -33 -214 -128 -238
-128 -30 0 -65 32 -65 59 0 31 30 57 140 121 109 63 140 69 168 33z m1972 -33
c109 -63 140 -89 140 -121 0 -27 -35 -59 -64 -59 -23 0 -202 96 -238 128 -18
15 -24 58 -10 78 9 13 43 33 57 34 6 0 57 -27 115 -60z m-670 -677 c0 -4 -10
-37 -22 -75 l-22 -68 -357 0 -356 0 -18 62 c-9 34 -19 68 -22 75 -4 11 71 13
396 13 221 0 401 -3 401 -7z m-213 -285 c-2 -7 -12 -39 -21 -70 l-17 -58 -149
0 -149 0 -15 55 c-9 30 -19 61 -22 70 -5 13 17 15 186 15 150 0 191 -3 187
-12z"/>
<path d="M4025 11683 c-36 -84 -49 -161 -36 -215 31 -138 170 -201 306 -139
46 20 125 85 125 102 0 11 -56 21 -114 20 -60 0 -125 -21 -180 -58 -31 -20
-38 -22 -32 -8 43 114 25 272 -38 324 -13 11 -17 7 -31 -26z"/>
<path d="M12025 11667 c-40 -87 -43 -191 -9 -282 6 -14 -1 -12 -32 8 -81 54
-199 73 -268 44 l-28 -12 42 -39 c184 -166 438 -50 392 178 -11 55 -47 142
-63 152 -5 3 -21 -19 -34 -49z"/>
<path d="M3705 11258 c-19 -67 -19 -178 0 -226 49 -117 183 -157 311 -92 32
16 77 45 99 65 47 41 40 50 -41 61 -67 8 -151 -16 -223 -63 -41 -27 -52 -31
-47 -17 41 107 17 278 -44 309 -16 8 -31 15 -34 15 -3 0 -12 -23 -21 -52z"/>
<path d="M12354 11295 c-24 -10 -34 -23 -47 -65 -19 -58 -22 -167 -7 -219 5
-19 9 -36 7 -37 -1 -2 -25 12 -52 31 -59 39 -141 65 -204 65 -69 0 -80 -11
-52 -52 88 -128 286 -146 378 -33 37 45 56 113 48 169 -10 69 -28 147 -34 151
-4 2 -20 -3 -37 -10z"/>
<path d="M3466 10889 c-18 -59 -21 -166 -6 -219 17 -62 66 -127 112 -152 64
-33 175 -31 244 4 70 36 109 72 141 125 33 56 23 66 -61 59 -75 -6 -168 -51
-240 -117 l-55 -50 11 38 c6 21 8 70 6 109 -5 80 -46 168 -103 224 l-33 32
-16 -53z"/>
<path d="M12585 10898 c-60 -68 -88 -140 -89 -223 -1 -38 2 -84 6 -101 l7 -31
-47 44 c-26 24 -79 59 -117 79 -64 31 -78 35 -140 32 -39 -2 -70 -8 -72 -14
-6 -19 59 -95 110 -130 61 -42 114 -57 198 -57 100 0 136 22 178 106 28 55 35
83 39 147 4 75 -11 174 -28 185 -5 3 -25 -14 -45 -37z"/>
<path d="M3227 10503 c-3 -5 -10 -49 -17 -99 -18 -134 4 -219 79 -297 136
-145 349 -102 486 98 21 30 36 58 33 61 -4 3 -52 1 -108 -5 -126 -12 -165 -33
-244 -131 -31 -38 -58 -70 -59 -70 -2 0 -1 32 1 71 8 133 -30 248 -110 335
-40 44 -53 51 -61 37z"/>
<path d="M12820 10464 c-82 -89 -121 -223 -103 -354 5 -38 8 -70 7 -70 -1 0
-22 28 -47 63 -57 78 -102 122 -147 141 -42 17 -230 33 -230 19 0 -20 59 -100
104 -141 80 -73 204 -117 293 -102 77 12 167 110 198 214 26 86 12 276 -20
276 -7 0 -31 -21 -55 -46z"/>
<path d="M3043 9873 c8 -172 52 -260 157 -317 73 -40 164 -46 241 -17 96 37
165 111 223 242 l24 56 -76 -13 c-150 -26 -177 -45 -274 -192 l-55 -83 -5 85
c-9 137 -70 247 -177 315 -26 17 -51 31 -56 31 -4 0 -5 -48 -2 -107z"/>
<path d="M13014 9948 c-74 -49 -138 -119 -152 -167 -7 -23 -17 -81 -23 -128
-5 -48 -11 -89 -13 -90 -2 -2 -29 34 -60 80 -68 103 -110 142 -175 161 -75 22
-161 31 -161 16 0 -7 16 -43 36 -81 46 -87 142 -180 210 -203 103 -35 220 -10
295 64 65 63 90 135 97 273 2 59 3 107 0 107 -3 0 -27 -15 -54 -32z"/>
<path d="M2895 9448 c24 -201 99 -334 222 -394 47 -23 62 -26 114 -20 80 8
160 47 222 110 52 51 108 150 122 214 6 31 6 32 -29 32 -59 0 -142 -38 -201
-92 -62 -56 -97 -111 -131 -202 l-23 -61 0 50 c-2 157 -93 316 -219 383 -82
44 -85 43 -77 -20z"/>
<path d="M13129 9456 c-123 -72 -169 -139 -189 -276 -24 -163 -17 -155 -56
-61 -71 171 -125 223 -266 256 -88 21 -91 20 -84 -12 14 -61 79 -175 126 -222
58 -58 119 -89 204 -104 54 -9 70 -8 110 7 111 42 203 174 231 331 16 92 18
125 7 125 -4 0 -41 -20 -83 -44z"/>
<path d="M2840 8923 c0 -55 26 -156 54 -211 112 -220 358 -265 519 -93 25 26
56 70 70 97 25 50 70 184 64 190 -7 8 -115 -29 -169 -58 -75 -40 -90 -57 -152
-182 l-54 -107 -12 53 c-36 155 -163 302 -297 343 -21 6 -23 3 -23 -32z"/>
<path d="M13187 8923 c-134 -71 -185 -138 -222 -290 -9 -40 -20 -73 -24 -73
-3 0 -28 48 -55 106 -62 132 -101 169 -222 213 -82 30 -104 36 -104 27 0 -2
10 -35 21 -72 32 -103 65 -162 128 -224 165 -166 397 -117 509 107 16 32 35
82 41 111 13 60 15 132 4 132 -5 0 -38 -17 -76 -37z"/>
<path d="M3469 8396 c-163 -70 -202 -123 -244 -326 -10 -47 -21 -89 -25 -93
-4 -4 -10 14 -13 42 -16 134 -133 293 -259 350 -71 33 -128 48 -128 33 0 -5
12 -50 26 -98 32 -113 77 -196 127 -239 44 -38 171 -95 227 -102 97 -13 249
98 314 228 37 74 59 160 54 209 l-3 30 -76 -34z"/>
<path d="M12560 8392 c0 -134 91 -296 207 -370 61 -38 155 -66 200 -59 153 25
310 211 338 401 l8 49 -34 -7 c-71 -14 -160 -65 -219 -125 -58 -59 -140 -201
-140 -242 0 -43 -18 -14 -39 64 -52 189 -94 237 -271 307 l-50 20 0 -38z"/>
<path d="M12490 7905 c0 -136 41 -249 123 -341 142 -157 388 -145 524 26 42
53 113 180 128 228 6 22 5 22 -37 16 -203 -28 -251 -57 -364 -225 -37 -54 -71
-99 -74 -99 -4 0 -12 48 -18 108 -20 179 -60 241 -214 326 l-68 38 0 -77z"/>
<path d="M3540 7938 c-88 -46 -152 -112 -173 -179 -22 -70 -37 -160 -37 -226
0 -43 3 -53 20 -58 31 -10 83 21 145 85 62 65 98 136 114 225 13 69 15 185 3
185 -5 0 -37 -15 -72 -32z"/>
<path d="M2840 7834 c0 -15 96 -195 126 -237 72 -99 272 -183 314 -133 15 19
-10 120 -44 174 -56 89 -173 167 -284 191 -57 12 -112 15 -112 5z"/>
<path d="M12389 7443 c-7 -32 -13 -96 -13 -143 0 -74 4 -95 33 -162 25 -60 45
-89 87 -127 76 -70 145 -94 249 -89 140 8 242 74 334 217 28 44 51 85 51 90 0
14 -83 14 -175 0 -123 -17 -192 -63 -287 -192 l-53 -71 -5 154 c-5 149 -6 157
-35 209 -26 46 -147 171 -167 171 -3 0 -12 -26 -19 -57z"/>
<path d="M3670 7435 c-87 -59 -137 -116 -155 -179 -20 -71 -29 -176 -20 -241
6 -53 8 -55 36 -55 22 0 43 13 79 46 105 98 140 189 140 366 0 59 -3 108 -7
107 -5 0 -37 -20 -73 -44z"/>
<path d="M3030 7203 c60 -110 115 -180 167 -213 61 -39 163 -72 209 -68 53 4
62 25 41 90 -48 151 -220 268 -394 268 l-65 0 42 -77z"/>
<path d="M3830 7008 c-92 -70 -151 -193 -152 -319 0 -80 20 -170 47 -204 15
-19 16 -19 61 30 56 62 100 151 115 230 13 68 7 189 -13 254 l-13 44 -45 -35z"/>
<path d="M12231 7005 c-37 -143 -40 -214 -11 -306 54 -175 184 -269 356 -256
147 11 269 100 368 268 l18 31 -128 -3 c-116 -4 -134 -7 -185 -31 -54 -27
-140 -108 -200 -188 l-26 -35 1 165 c1 197 -2 207 -110 320 l-72 75 -11 -40z"/>
<path d="M3188 6743 l-38 -4 16 -32 c25 -49 91 -128 137 -166 89 -72 262 -127
340 -107 25 6 27 10 27 56 0 35 -4 50 -13 50 -7 0 -27 20 -45 44 -80 114 -255
180 -424 159z"/>
<path d="M4023 6553 c-44 -64 -94 -158 -112 -214 -10 -31 -7 -54 23 -179 19
-79 33 -146 31 -148 -2 -2 -36 26 -75 62 -88 81 -147 122 -201 141 -49 18
-177 19 -266 4 -73 -13 -73 -14 8 -103 65 -71 168 -139 243 -161 81 -24 202
-16 271 16 184 86 266 360 169 564 -39 83 -45 84 -91 18z"/>
<path d="M12000 6553 c-33 -89 -43 -151 -37 -243 5 -97 30 -175 78 -249 l33
-51 27 26 c35 33 74 115 95 198 16 63 16 72 1 120 -26 80 -140 256 -167 256
-5 0 -18 -25 -30 -57z"/>
<path d="M12446 6219 c-62 -15 -153 -68 -192 -113 -55 -63 -108 -116 -116
-116 -5 0 -8 -4 -8 -10 0 -22 112 -43 207 -38 85 5 102 9 176 46 81 41 155
102 211 175 16 21 26 40 23 43 -22 23 -223 31 -301 13z"/>
<path d="M4319 6148 c-112 -153 -129 -360 -42 -520 56 -103 82 -99 143 25 54
108 62 194 32 312 -21 86 -79 225 -93 225 -5 0 -23 -19 -40 -42z"/>
<path d="M11712 6122 c-124 -278 -69 -525 143 -635 57 -30 65 -32 170 -31 127
0 184 18 288 87 55 38 127 115 127 137 0 21 -116 52 -195 53 -128 1 -244 -42
-374 -138 -35 -25 -61 -41 -58 -33 3 7 22 63 42 123 34 101 37 117 33 200 -4
74 -9 100 -32 144 -35 67 -96 161 -106 161 -4 0 -21 -31 -38 -68z"/>
<path d="M4607 5728 c-38 -80 -50 -153 -45 -264 5 -120 35 -198 104 -265 l44
-43 27 20 c35 26 63 105 70 199 6 87 -15 185 -58 266 -32 60 -94 139 -109 139
-5 0 -20 -24 -33 -52z"/>
<path d="M11427 5738 c-109 -138 -146 -280 -111 -438 21 -98 55 -147 92 -136
32 11 99 104 124 172 28 78 30 223 4 309 -19 63 -55 135 -67 135 -4 0 -23 -19
-42 -42z"/>
<path d="M3729 5711 c-85 -27 -86 -28 -42 -73 92 -96 222 -169 337 -189 105
-18 266 25 266 71 0 19 -76 94 -134 132 -33 21 -88 47 -124 58 -83 26 -224 26
-303 1z"/>
<path d="M5015 5328 c-33 -69 -39 -95 -43 -163 -6 -109 12 -165 92 -295 35
-58 63 -106 62 -107 -2 -2 -39 15 -84 37 -127 62 -176 75 -277 75 -85 0 -95
-2 -175 -41 -47 -23 -96 -50 -109 -61 l-24 -19 92 -48 c115 -59 186 -84 265
-92 155 -16 315 74 383 216 38 78 44 220 14 317 -18 61 -122 240 -148 256 -6
4 -27 -30 -48 -75z"/>
<path d="M11030 5374 c-48 -56 -100 -140 -124 -203 -17 -45 -21 -78 -21 -171
0 -105 3 -120 28 -172 32 -66 113 -145 182 -177 98 -46 207 -50 320 -11 66 23
235 109 235 120 0 4 -47 31 -104 60 -91 46 -113 53 -179 58 -82 5 -177 -17
-267 -63 -25 -12 -62 -30 -84 -39 l-38 -16 18 28 c56 85 126 212 135 247 17
62 6 189 -24 272 -40 112 -38 111 -77 67z"/>
<path d="M4132 5249 c-35 -11 -77 -28 -94 -39 l-30 -18 53 -42 c129 -101 294
-152 428 -131 73 11 138 35 176 64 20 15 19 16 -15 52 -49 51 -120 94 -191
116 -84 26 -241 25 -327 -2z"/>
<path d="M11647 5249 c-98 -33 -207 -112 -207 -150 0 -22 128 -76 202 -85 114
-13 247 27 376 114 91 63 93 68 36 94 -82 36 -144 48 -249 48 -74 -1 -115 -6
-158 -21z"/>
<path d="M5385 5028 c-8 -28 -15 -86 -15 -129 0 -135 50 -249 149 -342 40 -37
117 -87 135 -87 2 0 10 32 17 71 24 132 -19 276 -120 403 -43 53 -99 106 -138
129 -8 5 -17 -9 -28 -45z"/>
<path d="M10630 5015 c-152 -146 -217 -305 -190 -465 9 -54 16 -70 28 -69 84
4 234 176 267 305 16 65 11 139 -18 249 l-13 50 -74 -70z"/>
<path d="M10219 4772 c-224 -138 -288 -230 -297 -421 l-5 -104 66 36 c106 58
148 87 203 139 59 56 88 114 103 208 12 79 19 190 12 189 -3 0 -40 -22 -82
-47z"/>
<path d="M5810 4748 c0 -188 53 -294 190 -387 57 -38 184 -111 194 -111 3 0 6
31 6 68 0 134 -50 242 -160 346 -62 58 -188 136 -220 136 -5 0 -10 -23 -10
-52z"/>
<path d="M9685 4536 c-205 -102 -324 -275 -325 -468 0 -43 3 -78 7 -78 10 0
154 80 201 112 67 46 142 127 163 176 24 55 51 208 47 263 l-3 41 -90 -46z"/>
<path d="M6333 4494 c8 -88 31 -183 57 -234 22 -43 97 -120 155 -159 42 -29
190 -111 200 -111 3 0 5 33 5 74 0 193 -118 369 -311 466 -113 56 -113 56
-106 -36z"/>
<path d="M5255 4500 c-104 -22 -229 -91 -289 -158 -18 -21 -18 -21 20 -37 128
-53 291 -70 400 -41 71 19 165 70 205 112 l34 36 -30 24 c-66 52 -241 86 -340
64z"/>
<path d="M10673 4500 c-58 -11 -150 -43 -178 -64 -17 -12 -16 -16 28 -59 92
-93 213 -133 374 -124 88 4 208 34 254 63 14 8 -51 76 -111 114 -95 60 -252
90 -367 70z"/>
<path d="M6904 4330 c4 -50 16 -121 28 -158 18 -59 29 -76 92 -137 57 -56 96
-83 194 -133 139 -72 139 -72 128 28 -21 181 -138 345 -310 432 -33 17 -78 37
-99 44 l-40 14 7 -90z"/>
<path d="M9099 4378 c-196 -97 -331 -304 -317 -488 4 -57 12 -57 124 6 103 59
215 158 243 218 39 79 73 306 47 306 -8 0 -51 -19 -97 -42z"/>
<path d="M7440 3870 l0 -520 85 0 85 0 0 520 0 520 -85 0 -85 0 0 -520z"/>
<path d="M7700 3870 l0 -520 85 0 85 0 0 520 0 520 -85 0 -85 0 0 -520z"/>
<path d="M7970 3870 l0 -520 85 0 85 0 0 520 0 520 -85 0 -85 0 0 -520z"/>
<path d="M8230 3870 l0 -520 85 0 85 0 0 520 0 520 -85 0 -85 0 0 -520z"/>
<path d="M8500 3870 l0 -520 85 0 85 0 0 520 0 520 -85 0 -85 0 0 -520z"/>
<path d="M5793 4295 c-78 -21 -162 -67 -222 -121 l-53 -48 36 -18 c92 -47 264
-69 377 -48 99 19 259 114 259 154 0 18 -86 63 -155 81 -72 18 -172 18 -242 0z"/>
<path d="M10140 4299 c-52 -9 -174 -61 -213 -91 -18 -13 -16 -16 27 -51 93
-77 216 -114 342 -103 82 6 211 45 267 79 l39 23 -37 32 c-51 46 -147 91 -224
108 -74 15 -120 16 -201 3z"/>
<path d="M6390 3962 c-85 -22 -147 -60 -204 -123 -54 -60 -121 -167 -111 -177
4 -4 66 -7 138 -6 114 1 143 5 213 27 139 46 244 129 299 236 14 28 25 53 25
56 0 3 -66 5 -147 4 -106 0 -167 -5 -213 -17z"/>
<path d="M9387 3930 c69 -125 140 -193 240 -230 86 -32 143 -40 289 -40 l134
0 -37 61 c-53 86 -132 170 -190 202 -83 44 -152 57 -316 57 l-148 0 28 -50z"/>
<path d="M7060 3829 c-132 -26 -296 -151 -359 -276 l-31 -62 46 -7 c106 -16
272 14 384 68 72 35 182 138 215 201 19 37 19 39 1 52 -42 31 -162 42 -256 24z"/>
<path d="M8816 3761 c102 -188 227 -258 494 -276 52 -3 107 -2 123 2 l27 8
-58 90 c-120 185 -209 230 -481 242 l-144 6 39 -72z"/>
<path d="M2653 2569 c-24 -6 -71 -29 -105 -52 -111 -74 -163 -183 -156 -326 6
-134 72 -238 190 -302 61 -33 67 -34 173 -34 100 0 115 2 161 27 145 76 211
195 202 359 -11 193 -150 329 -343 335 -44 2 -99 -2 -122 -7z m174 -160 c38
-14 71 -46 95 -93 16 -32 19 -54 16 -117 -3 -68 -7 -82 -34 -116 -39 -49 -87
-73 -147 -73 -118 0 -187 77 -187 209 1 120 74 201 182 201 26 0 59 -5 75 -11z"/>
<path d="M4930 2564 c-133 -35 -225 -140 -250 -285 -29 -167 44 -321 188 -391
63 -31 73 -33 172 -33 95 1 110 3 158 28 72 38 129 91 158 149 20 40 24 62 24
138 l0 90 -190 0 -190 0 0 -65 0 -65 110 0 c77 0 110 -4 110 -12 0 -19 -49
-77 -78 -92 -44 -22 -98 -27 -148 -15 -144 36 -194 242 -85 350 69 69 184 73
247 8 27 -28 31 -29 121 -29 57 0 93 4 93 10 0 23 -50 107 -82 136 -49 45 -81
62 -145 79 -71 19 -141 18 -213 -1z"/>
<path d="M9663 2569 c-24 -6 -71 -29 -105 -52 -112 -75 -164 -185 -156 -326 8
-136 72 -238 190 -302 61 -33 67 -34 173 -34 100 0 115 2 161 27 145 76 211
195 202 359 -11 193 -150 329 -343 335 -44 2 -99 -2 -122 -7z m186 -167 c19
-9 48 -34 65 -55 30 -37 31 -43 31 -132 0 -89 -1 -95 -31 -132 -39 -49 -87
-73 -147 -73 -118 0 -187 77 -187 209 1 122 74 201 185 201 28 0 65 -8 84 -18z"/>
<path d="M11032 2565 c-102 -32 -158 -112 -150 -215 7 -98 60 -147 218 -199
111 -36 137 -58 131 -111 -3 -26 -42 -50 -80 -50 -42 1 -66 16 -80 53 -10 27
-12 27 -102 27 l-92 0 6 -41 c9 -71 68 -134 154 -165 21 -7 74 -13 118 -13 64
-1 90 4 130 23 116 55 164 167 116 273 -25 53 -69 83 -201 132 -114 44 -132
57 -132 95 0 64 80 89 127 41 14 -13 25 -31 25 -40 0 -12 16 -15 95 -15 92 0
95 1 95 23 -1 37 -35 100 -73 134 -66 58 -204 80 -305 48z"/>
<path d="M11969 2567 c-151 -43 -245 -163 -256 -326 -11 -159 62 -293 195
-358 51 -25 67 -28 162 -28 87 0 113 4 152 22 83 38 158 120 182 201 7 22 6
22 -88 22 -93 0 -95 -1 -115 -29 -57 -80 -197 -82 -263 -3 -37 44 -51 94 -46
168 3 50 10 72 34 106 63 90 182 102 257 27 l39 -39 94 0 93 0 -11 33 c-43
125 -159 205 -306 213 -45 2 -96 -1 -123 -9z"/>
<path d="M1796 2343 c64 -125 121 -232 125 -237 5 -6 9 -65 9 -133 l0 -123 85
0 85 0 0 116 0 117 126 243 125 244 -99 0 -99 0 -62 -137 c-35 -76 -66 -142
-70 -146 -4 -4 -37 57 -73 135 l-66 143 -102 3 -101 3 117 -228z"/>
<path d="M3212 2318 c5 -284 12 -318 74 -382 64 -66 105 -81 224 -81 98 0 109
2 160 30 60 33 114 96 130 153 5 21 10 145 10 285 l0 247 -85 0 -85 0 0 -230
c0 -177 -3 -239 -14 -265 -34 -81 -169 -89 -216 -13 -18 31 -20 51 -20 271 l0
237 -91 0 -91 0 4 -252z"/>
<path d="M3940 2210 l0 -360 85 0 85 0 0 215 c0 118 3 215 8 215 4 0 70 -96
147 -213 l140 -212 88 -3 87 -3 0 361 0 360 -85 0 -85 0 0 -222 0 -221 -28 39
c-15 21 -81 121 -147 221 l-120 183 -87 0 -88 0 0 -360z"/>
<path d="M5700 2210 l0 -360 85 0 85 0 0 360 0 360 -85 0 -85 0 0 -360z"/>
<path d="M6000 2210 l0 -360 85 0 85 0 0 223 0 222 148 -222 147 -222 88 -1
87 0 0 360 0 360 -90 0 -90 0 0 -217 -1 -218 -142 217 -142 217 -87 1 -88 0 0
-360z"/>
<path d="M6724 2533 c8 -21 62 -173 120 -338 59 -165 111 -310 116 -322 9 -22
15 -23 117 -23 l108 0 82 233 c45 127 102 289 127 360 l46 127 -94 0 -93 0
-88 -267 -88 -268 -89 268 -90 267 -93 0 -94 0 13 -37z"/>
<path d="M7510 2210 l0 -360 220 0 220 0 0 70 0 69 -132 3 -133 3 -3 78 -3 77
121 0 121 0 -3 68 -3 67 -118 3 -118 3 3 67 3 67 133 3 132 3 0 69 0 70 -220
0 -220 0 0 -360z"/>
<path d="M8060 2210 l0 -361 88 3 87 3 3 215 2 214 145 -217 145 -217 85 0 85
0 0 360 0 360 -85 0 -85 0 0 -222 0 -223 -148 223 -147 222 -87 0 -88 0 0
-360z"/>
<path d="M8790 2500 l0 -70 95 0 95 0 0 -290 0 -291 88 3 87 3 3 288 2 287 90
0 90 0 0 70 0 70 -275 0 -275 0 0 -70z"/>
<path d="M10230 2211 l0 -361 90 0 90 0 0 136 c0 133 0 135 21 132 16 -2 40
-36 94 -133 l72 -130 96 -3 c54 -1 97 1 97 5 0 4 -36 69 -79 143 l-79 135 39
19 c160 76 157 302 -5 389 -37 20 -58 22 -238 25 l-198 4 0 -361z m359 183
c29 -37 27 -89 -4 -119 -21 -22 -33 -25 -100 -25 l-75 0 0 85 0 85 79 0 c74 0
81 -2 100 -26z"/>
<path d="M12510 2210 l0 -360 203 2 202 3 3 68 3 67 -116 0 -115 0 0 290 0
290 -90 0 -90 0 0 -360z"/>
<path d="M13000 2327 c0 -292 6 -324 79 -397 58 -58 118 -80 217 -80 131 0
230 58 278 160 19 41 21 66 24 303 l3 257 -90 0 -91 0 0 -245 0 -245 -28 -31
c-53 -59 -169 -48 -203 19 -10 20 -15 90 -17 265 l-3 237 -85 0 -84 0 0 -243z"/>
<path d="M13720 2211 l0 -361 174 0 c198 0 264 10 319 46 107 71 99 251 -15
310 l-30 16 31 19 c49 30 71 74 71 145 0 75 -25 117 -90 154 -43 24 -53 25
-252 28 l-208 3 0 -360z m357 197 c22 -23 22 -83 0 -106 -13 -13 -39 -18 -102
-21 l-85 -3 0 69 c0 38 3 73 8 77 4 4 42 6 84 4 57 -2 82 -8 95 -20z m7 -279
c20 -16 26 -29 26 -59 0 -57 -24 -70 -132 -70 l-88 0 0 75 0 75 84 0 c69 0 88
-4 110 -21z"/>
<path d="M273 1322 c-93 -33 -158 -93 -205 -191 -28 -56 -31 -74 -31 -150 0
-155 68 -268 201 -333 61 -30 74 -33 162 -33 83 0 103 4 156 28 77 36 145 104
181 182 37 81 39 210 4 297 -29 75 -100 149 -176 185 -79 36 -212 43 -292 15z
m210 -156 c138 -57 143 -302 8 -373 -95 -50 -207 -16 -256 78 -52 98 -12 248
77 292 40 20 127 22 171 3z"/>
<path d="M6907 1326 c-92 -34 -140 -101 -140 -196 0 -112 55 -165 232 -221
115 -37 148 -83 96 -134 -41 -42 -118 -27 -138 25 l-11 30 -94 0 -94 0 7 -32
c13 -65 57 -121 120 -153 53 -27 68 -30 154 -30 111 0 153 16 214 84 40 44 52
87 45 160 -8 87 -52 124 -218 186 -51 18 -101 41 -111 51 -24 22 -24 66 -1 87
40 36 132 9 132 -38 0 -12 17 -15 95 -15 l95 0 0 25 c0 56 -52 125 -120 161
-46 24 -209 30 -263 10z"/>
<path d="M9433 1326 c-59 -19 -104 -49 -151 -100 -53 -57 -78 -108 -92 -183
-39 -217 112 -413 332 -430 162 -12 292 62 362 207 28 59 31 74 31 160 0 81
-4 103 -26 151 -37 79 -90 133 -167 171 -58 29 -78 33 -157 35 -55 2 -106 -3
-132 -11z m206 -161 c68 -35 107 -117 99 -210 -9 -105 -71 -173 -167 -183 -66
-6 -113 12 -154 58 -94 103 -58 297 63 343 31 11 132 7 159 -8z"/>
<path d="M10930 1331 c-73 -23 -119 -63 -145 -123 -32 -79 -8 -180 56 -227 17
-13 79 -41 138 -62 104 -38 151 -70 151 -105 0 -28 -47 -64 -83 -64 -40 0 -87
33 -87 61 0 17 -8 19 -95 19 -92 0 -95 -1 -95 -22 1 -33 33 -99 61 -125 68
-62 209 -89 312 -59 156 45 220 223 119 329 -34 36 -59 49 -166 88 -105 38
-136 61 -136 99 0 42 25 62 74 58 33 -2 44 -9 61 -35 l20 -32 94 -1 93 0 -6
38 c-10 56 -54 112 -111 141 -41 22 -65 26 -140 28 -49 1 -101 -1 -115 -6z"/>
<path d="M860 976 l0 -356 90 0 90 0 0 124 0 123 93 6 c144 8 214 45 255 135
48 105 13 228 -82 287 l-49 30 -199 3 -198 4 0 -356z m345 189 c34 -33 34 -93
0 -125 -19 -18 -39 -24 -95 -28 l-70 -5 0 92 0 91 70 0 c62 0 74 -3 95 -25z"/>
<path d="M1500 975 l0 -355 220 0 220 0 0 70 0 70 -130 0 -130 0 0 75 0 75
115 0 115 0 0 70 0 70 -115 0 -115 0 0 70 0 70 130 0 130 0 0 70 0 70 -220 0
-220 0 0 -355z"/>
<path d="M2050 975 l0 -355 90 0 90 0 0 218 0 217 143 -217 142 -218 88 0 87
0 0 355 0 355 -85 0 -85 0 -2 -216 -3 -215 -142 215 -142 216 -91 0 -90 0 0
-355z"/>
<path d="M3033 1078 c4 -282 8 -304 69 -373 61 -69 115 -90 228 -89 108 1 148
14 211 71 81 73 84 84 87 381 l3 262 -85 0 -85 0 -3 -239 c-3 -225 -4 -241
-24 -268 -49 -66 -164 -66 -204 0 -18 29 -20 52 -20 270 l0 237 -91 0 -91 0 5
-252z"/>
<path d="M3750 975 l0 -355 90 0 90 0 0 217 0 217 143 -217 142 -217 88 0 87
0 0 355 0 355 -85 0 -85 0 -2 -217 -3 -217 -142 217 -142 217 -91 0 -90 0 0
-355z"/>
<path d="M4520 975 l0 -355 90 0 90 0 0 355 0 355 -90 0 -90 0 0 -355z"/>
<path d="M4826 1173 c118 -334 173 -489 184 -520 l12 -33 109 0 109 0 11 28
c26 66 239 668 239 675 0 4 -41 6 -92 5 l-92 -3 -85 -258 c-46 -142 -87 -254
-91 -250 -4 4 -45 122 -91 261 l-84 252 -92 0 -92 0 55 -157z"/>
<path d="M5570 975 l0 -355 220 0 220 0 0 70 0 70 -135 0 -135 0 0 75 0 74
118 3 117 3 3 68 3 67 -121 0 -120 0 0 70 0 69 133 3 132 3 3 68 3 67 -221 0
-220 0 0 -355z"/>
<path d="M6120 976 l0 -356 85 0 85 0 0 136 c0 133 0 135 21 132 16 -2 41 -37
95 -133 l72 -130 102 -3 101 -3 -14 23 c-35 55 -147 249 -147 253 0 2 15 12
33 21 77 39 117 103 117 189 0 93 -36 156 -115 198 -36 20 -58 22 -237 25
l-198 4 0 -356z m349 190 c16 -14 21 -31 21 -66 0 -68 -21 -84 -121 -89 l-79
-3 0 92 0 92 79 -3 c60 -3 84 -9 100 -23z"/>
<path d="M7410 975 l0 -355 90 0 90 0 0 355 0 355 -90 0 -90 0 0 -355z"/>
<path d="M7672 1263 l3 -68 93 -3 92 -3 0 -284 0 -285 90 0 90 0 0 285 0 285
95 0 95 0 0 70 0 70 -280 0 -281 0 3 -67z"/>
<path d="M8260 1324 c0 -3 54 -110 120 -236 l120 -230 0 -119 0 -119 90 0 90
0 0 120 0 121 120 230 c66 126 120 232 120 234 0 3 -44 5 -98 5 l-98 0 -66
-147 -67 -148 -51 110 c-29 61 -59 127 -67 148 l-15 37 -99 0 c-54 0 -99 -3
-99 -6z"/>
<path d="M10010 975 l0 -355 90 0 90 0 0 145 0 145 110 0 110 0 0 65 0 65
-110 0 -110 0 0 75 0 75 145 0 145 0 0 70 0 70 -235 0 -235 0 0 -355z"/>
<path d="M11410 976 l0 -356 90 0 90 0 0 135 c0 124 1 135 18 135 14 0 39 -37
93 -135 l74 -135 98 0 c54 0 97 4 95 8 -1 4 -36 64 -75 132 -40 69 -72 129
-70 135 1 5 20 19 42 30 25 14 51 40 70 70 25 41 30 58 30 115 0 88 -37 152
-110 189 -47 25 -58 26 -247 29 l-198 3 0 -355z m326 204 c51 -20 68 -69 43
-123 -16 -34 -49 -47 -124 -47 l-65 0 0 90 0 90 59 0 c33 0 72 -5 87 -10z"/>
<path d="M12080 975 l0 -355 85 0 85 0 0 355 0 355 -85 0 -85 0 0 -355z"/>
<path d="M12600 975 l0 -355 200 0 200 0 0 65 0 65 -115 0 -115 0 0 290 0 290
-85 0 -85 0 0 -355z"/>
<path d="M13285 1313 c-4 -10 -43 -117 -87 -238 -43 -121 -97 -269 -119 -328
-21 -60 -39 -113 -39 -118 0 -5 40 -9 89 -9 l89 0 19 58 20 57 135 3 136 3 19
-58 20 -58 93 -3 c72 -2 91 0 88 10 -2 7 -60 167 -128 356 l-123 342 -103 0
c-88 0 -103 -2 -109 -17z m156 -320 l38 -113 -85 0 c-46 0 -84 4 -84 9 0 24
84 244 88 231 3 -8 22 -66 43 -127z"/>
<path d="M13830 975 l0 -355 90 0 90 0 0 218 0 217 143 -217 142 -217 93 -1
92 0 0 355 0 355 -90 0 -90 0 -2 -216 -3 -216 -129 199 c-71 109 -136 206
-144 216 -12 14 -32 17 -104 17 l-88 0 0 -355z"/>
<path d="M14600 975 l0 -355 85 0 84 0 3 154 3 154 118 -154 118 -154 104 0
c58 0 105 2 105 4 0 2 -63 83 -140 181 l-140 177 32 42 c18 22 75 95 127 161
52 66 99 126 104 133 7 9 -13 12 -94 12 l-104 -1 -115 -152 -115 -152 -3 153
-3 152 -84 0 -85 0 0 -355z"/>
<path d="M15515 1318 c-90 -245 -245 -681 -245 -688 0 -6 39 -10 89 -10 l89 0
19 58 20 57 135 3 134 3 20 -61 19 -60 92 0 c51 0 93 2 93 4 0 4 -136 383
-222 619 l-32 87 -104 0 c-73 0 -104 -4 -107 -12z m112 -436 c-44 -2 -82 -1
-84 2 -5 4 63 219 75 241 3 5 24 -47 47 -115 l42 -125 -80 -3z"/>
</g>
</svg>
